# xmcd
#
# Track frame offsets:
#	150
#	17838
#	46215
#	78603
#	110572
#	130446
#	152834
#	210754
#	262099
#
# Disc length: 3752 seconds
#
# Revision: 1
# Processed by: cddbd v1.5.2PL0 Copyright (c) Steve Scherf et al.
# Submitted via: audiograbber 1.83.01
#
DISCID=770ea609
DTITLE=Grateful Dead - 90-03-25 Knickerbocker Arena, Albany NY
DYEAR=1900
DGENRE=
TTITLE0=Greatest Story Ever Told
TTITLE1=Touch Of Gray
TTITLE2=Wang Dang Doodle
TTITLE3=Never Trust A Woman
TTITLE4=Jack-A-Roe
TTITLE5=When I Paint My Masterpiece
TTITLE6=Bird Song
TTITLE7=Let It Grow
TTITLE8=Filler: Childhood's End
EXTD=
EXTT0=
EXTT1=
EXTT2=
EXTT3=
EXTT4=
EXTT5=
EXTT6=
EXTT7=
EXTT8=
PLAYORDER=
